<svg id="Capa_1" data-name="Capa 1" xmlns="http://www.w3.org/2000/svg" viewBox="0 0 511.76 512"><defs><style>.cls-1{fill:silver;}.cls-2{fill:#aaa;}.cls-3{fill:#6f6f6f;}.cls-4{fill:#646464;}.cls-5{fill:#525252;}.cls-6{fill:#4b4b4b;}</style></defs><title>turtleBW</title><path class="cls-1" d="M325.39,103.09l-13.61,47.39-14.41-4.13h-82.8l-14.41,4.13-13.61-47.39a79.76,79.76,0,0,1,10.84-66.85L222.5,0h66.94l25.11,36.24A79.73,79.73,0,0,1,325.39,103.09Z" transform="translate(-0.12)"/><path class="cls-2" d="M297.37,146.35H256V0h33.43l25.11,36.24a79.73,79.73,0,0,1,10.84,66.85l-13.6,47.39Z" transform="translate(-0.12)"/><path class="cls-1" d="M185.3,452.78h0L140.66,394.4h0l-4.43-14.32a110.55,110.55,0,0,0-76.68,90.73L54.82,506.3,90.31,511A110.32,110.32,0,0,0,198,460.8Z" transform="translate(-0.12)"/><path class="cls-2" d="M451.7,470.86a110.34,110.34,0,0,0-76.53-90.56l-4.43,14.32L326.2,452.87h0l-12.67,8A110.08,110.08,0,0,0,421,511l35.45-4.73Z" transform="translate(-0.12)"/><path class="cls-1" d="M155.6,171l.65-15c-40.83-1.79-80.77,14.28-112.45,45.22C16.29,228.14-.44,262.83.14,291.82L.5,310.09l17.84-3.92c64.8-14.24,104.63-23.54,105-23.63L120,267.94h0l30.17-82c1.6,0,3.2,0,4.82.09l.66-15Z" transform="translate(-0.12)"/><path class="cls-2" d="M468.2,201.27c-31.68-30.94-71.61-47-112.45-45.22L357.06,186c1.62-.07,3.23-.09,4.82-.09l30.17,82-3.41,14.6c.39.09,40.22,9.39,105,23.63l17.84,3.92.36-18.26C512.44,262.83,495.71,228.13,468.2,201.27Z" transform="translate(-0.12)"/><path class="cls-3" d="M416.15,280.63v0a240.44,240.44,0,0,1-2.09,31.52c-5.18,39.06-19.78,76.48-41.84,106.21-.55.75-1.11,1.49-1.67,2.23a186.45,186.45,0,0,1-19.19,21.53c-27.56,26.42-60.63,40.68-95.35,40.69h0c-34.72,0-67.8-14.25-95.36-40.65a188.89,188.89,0,0,1-19.22-21.57q-.82-1.08-1.65-2.19c-22.06-29.74-36.68-67.17-41.86-106.25a240.44,240.44,0,0,1-2.09-31.52v0c0-46,13.52-84.06,39.25-111q4-4.21,8.44-8a131.23,131.23,0,0,1,16.15-12c25.94-16.35,58.81-24.91,96.34-24.91h0c37.52,0,70.41,8.58,96.33,24.94a129.67,129.67,0,0,1,16.12,11.93q4.44,3.85,8.47,8.08C402.64,196.59,416.14,234.67,416.15,280.63Z" transform="translate(-0.12)"/><path class="cls-4" d="M416.15,280.63v0a240.44,240.44,0,0,1-2.09,31.52c-5.18,39.06-19.78,76.48-41.84,106.21-.55.75-1.11,1.49-1.67,2.23a186.45,186.45,0,0,1-19.19,21.53c-27.56,26.42-60.63,40.68-95.35,40.69V124.75c37.52,0,70.41,8.57,96.33,24.93a130.76,130.76,0,0,1,16.12,11.94q4.44,3.84,8.47,8.08C402.64,196.59,416.14,234.67,416.15,280.63Z" transform="translate(-0.12)"/><path class="cls-5" d="M341.83,280.63l-27.76-48.06,62.86-62.87q-4-4.23-8.47-8.08a128.94,128.94,0,0,0-16.12-11.93L287.82,214.2H224.18l-64.55-64.55a132.33,132.33,0,0,0-16.15,12q-4.42,3.84-8.44,8l62.9,62.9-27.76,48.06H95.79v0a240.44,240.44,0,0,0,2.09,31.52h72.31l27.75,48.07-58.2,58.18q.82,1.11,1.65,2.19a188.89,188.89,0,0,0,19.22,21.57l63.57-63.57h63.64l63.54,63.53a186.45,186.45,0,0,0,19.19-21.53c.56-.74,1.12-1.48,1.67-2.23l-58.15-58.14,27.76-48.07h72.23a240.44,240.44,0,0,0,2.09-31.52v0Zm-56.58,66.44H226.76l-29.25-50.66,29.25-50.66h58.49l29.25,50.66Z" transform="translate(-0.12)"/><path class="cls-6" d="M416.15,280.63v0a240.44,240.44,0,0,1-2.09,31.52H341.83l-27.76,48.07,58.15,58.14c-.55.75-1.11,1.49-1.67,2.23a186.45,186.45,0,0,1-19.19,21.53l-63.54-63.53H256V347.07h29.24l29.25-50.66-29.25-50.66H256V214.2h31.81l64.52-64.52a130,130,0,0,1,16.12,11.94q4.44,3.84,8.47,8.08l-62.86,62.87,27.76,48.06Z" transform="translate(-0.12)"/></svg>